<?xml version="1.0" encoding="UTF-8"?>
<!DOCTYPE svg PUBLIC "-//W3C//DTD SVG 1.1//EN" "http://www.w3.org/Graphics/SVG/1.1/DTD/svg11.dtd">
<!-- Creator: CorelDRAW 2020 (64-Bit) -->
<svg xmlns="http://www.w3.org/2000/svg" xml:space="preserve" width="25mm" height="25mm" version="1.1" style="shape-rendering:geometricPrecision; text-rendering:geometricPrecision; image-rendering:optimizeQuality; fill-rule:evenodd; clip-rule:evenodd"
viewBox="0 0 2500 2500"
 xmlns:xlink="http://www.w3.org/1999/xlink"
 xmlns:xodm="http://www.corel.com/coreldraw/odm/2003">
 <defs>
  <style type="text/css">
   <![CDATA[
    .str1 {stroke:black;stroke-width:1388.88;stroke-miterlimit:22.9256}
    .str2 {stroke:white;stroke-width:1388.88;stroke-miterlimit:22.9256}
    .str4 {stroke:black;stroke-width:260.43;stroke-miterlimit:22.9256}
    .str6 {stroke:white;stroke-width:347.24;stroke-miterlimit:22.9256}
    .str0 {stroke:black;stroke-width:173.62;stroke-miterlimit:22.9256}
    .str3 {stroke:#FF6633;stroke-width:173.62;stroke-miterlimit:22.9256}
    .str5 {stroke:white;stroke-width:173.62;stroke-miterlimit:22.9256}
    .fil0 {fill:none}
    .fil4 {fill:#FF6633}
    .fil1 {fill:white}
    .fil2 {fill:black;fill-rule:nonzero}
    .fil3 {fill:white;fill-rule:nonzero}
   ]]>
  </style>
 </defs>
 <g id="Layer_x0020_1">
  <metadata id="CorelCorpID_0Corel-Layer"/>
  <g id="_2794985730704">
   <path class="fil0 str0" d="M-61194.19 -2010.43c917.62,-546.95 1835.24,-1093.9 2442.91,-2635.33 607.58,-1541.44 905.22,-4077.36 1283.46,-5378.44 378.25,-1301.08 837.01,-1367.32 1066.44,-1400.49 229.43,-33.17 229.43,-33.17 229.43,-33.17"/>
   <path class="fil0 str0" d="M-51350.59 -2010.43c-917.72,-546.95 -1835.33,-1093.9 -2442.91,-2635.33 -607.68,-1541.44 -905.22,-4077.36 -1283.46,-5378.44 -378.25,-1301.08 -837.11,-1367.32 -1066.54,-1400.49 -229.33,-33.17 -229.33,-33.17 -229.33,-33.17"/>
  </g>
  <path class="fil0 str1" d="M-37515.85 -3843.01c-3179.13,3410.53 -8495.18,3573.92 -11873.92,364.96 -3378.74,-3209.06 -3540.65,-8575.1 -361.52,-11985.63 3179.04,-3410.53 8495.18,-3573.92 11873.82,-364.96"/>
  <path class="fil0 str2" d="M-37188.88 -6487.2c-3179.13,3410.53 -8495.18,3573.92 -11873.92,364.96 -3378.74,-3209.06 -3540.65,-8575.1 -361.52,-11985.63 3179.04,-3410.53 8495.18,-3573.92 11873.82,-364.96"/>
  <g id="_2794985729744">
   <path class="fil0 str1" d="M-66904.82 -1864.57c1864.47,-1145.87 3728.94,-2291.63 4963.48,-5520.77 1234.65,-3229.23 1839.27,-8541.83 2607.68,-11267.52 768.5,-2725.69 1700.79,-2864.57 2166.93,-2933.96 466.04,-69.49 466.04,-69.49 466.04,-69.49"/>
   <path class="fil0 str1" d="M-46904.72 -1864.57l-86.12 -52.95m-3883.07 -3466.04c-362.11,-565.55 -696.56,-1223.03 -994.29,-2001.77 -1234.65,-3229.23 -1839.27,-8541.83 -2607.68,-11267.52 -768.5,-2725.69 -1700.79,-2864.57 -2166.93,-2933.96 -466.04,-69.49 -466.04,-69.49 -466.04,-69.49"/>
  </g>
  <circle class="fil1 str3" cx="-56921.56" cy="-21564.07" r="742.22"/>
  <circle class="fil1 str3" cx="-59076.67" cy="-19456.99" r="742.22"/>
  <circle class="fil1 str3" cx="-54798.92" cy="-19456.99" r="742.22"/>
  <circle class="fil1 str3" cx="-59835.14" cy="-16480.12" r="742.22"/>
  <circle class="fil1 str3" cx="-53975.69" cy="-16480.12" r="742.22"/>
  <circle class="fil1 str3" cx="-60505.81" cy="-12986.02" r="742.22"/>
  <circle class="fil1 str3" cx="-61226.18" cy="-9704.23" r="742.22"/>
  <circle class="fil1 str3" cx="-62281" cy="-6580.91" r="742.22"/>
  <circle class="fil1 str3" cx="-64128.05" cy="-3901.67" r="742.22"/>
  <circle class="fil1 str3" cx="-66904.82" cy="-1864.57" r="742.22"/>
  <circle class="fil1 str3" cx="-53303.74" cy="-12986.02" r="742.22"/>
  <circle class="fil1 str3" cx="-52596.46" cy="-9755.31" r="742.22"/>
  <circle class="fil1 str3" cx="-51522.24" cy="-6580.91" r="742.22"/>
  <circle class="fil1 str3" cx="-49836.71" cy="-3901.67" r="742.22"/>
  <circle class="fil1 str3" cx="-47128.35" cy="-1864.57" r="742.22"/>
  <circle class="fil1 str3" cx="-43849.61" cy="-1176.97" r="742.22"/>
  <circle class="fil1 str3" cx="-37515.85" cy="-3901.67" r="742.22"/>
  <circle class="fil1 str3" cx="-40462.4" cy="-1799.51" r="742.22"/>
  <g id="_2794985725808">
   <path class="fil0 str4" d="M-63286.71 -2434.35c1242.32,-838.39 2484.55,-1676.67 3307.19,-4039.37 822.64,-2362.7 1225.49,-6249.7 1737.6,-8244 512.01,-1994.39 1133.17,-2095.96 1443.8,-2146.75 310.53,-50.79 310.53,-50.79 310.53,-50.79"/>
   <path class="fil0 str4" d="M-49960.53 -2434.35c-1242.32,-838.39 -2484.55,-1676.67 -3307.28,-4039.37 -822.54,-2362.7 -1225.39,-6249.7 -1737.5,-8244 -512.01,-1994.39 -1133.17,-2095.96 -1443.8,-2146.75 -310.53,-50.79 -310.53,-50.79 -310.53,-50.79"/>
  </g>
  <g id="_2794985725760">
   <path class="fil0 str0" d="M-58815.35 -1409.74c576.97,-343.9 1153.94,-687.8 1536.02,-1656.99 382.09,-969.19 569.19,-2563.68 806.99,-3381.69 237.8,-818.11 526.28,-859.84 670.57,-880.61 144.19,-20.87 144.19,-20.87 144.19,-20.87"/>
   <path class="fil0 str0" d="M-52626.08 -1409.74c-576.97,-343.9 -1153.94,-687.8 -1536.02,-1656.99 -382.09,-969.19 -569.19,-2563.68 -806.99,-3381.69 -237.8,-818.11 -526.28,-859.84 -670.57,-880.61 -144.19,-20.87 -144.19,-20.87 -144.19,-20.87"/>
  </g>
  <path class="fil2" d="M-92656.99 -1585.73l-2358.27 0 -4717.32 -9207.19 310.24 -307.38 4008.37 0 0 -6320.67 -5780.12 0 0 15835.24 -2258.76 0 0 -17184.74 8415.55 0c553.54,0 1007.48,120.08 1356.4,356.2 348.72,236.22 525.69,543.6 525.69,918.41l0 6425.59c0,850.98 -819.29,1274.7 -2463.68,1274.7 -160.24,0 -398.43,-4.04 -713.88,-15.16 -310.43,-11.12 -537.2,-18.6 -681.2,-18.6 1461.52,2740.35 2912.11,5488.09 4356.99,8243.6zm11721.26 0l-8337.89 0 0 -17184.74 8238.09 0 0 1349.51 -5979.33 0 0 6410.73 5447.83 0 0 1371.95 -5447.83 0 0 6702.95 6079.13 0 0 1349.61zm11626.67 0l-8105.41 0 0 -17184.74 2258.86 0 0 15835.14 5846.56 0 0 1349.61z"/>
  <path class="fil2" d="M-24213.29 -2721.46c0,374.9 -171.56,682.28 -520.28,918.41 -348.72,236.22 -802.85,356.3 -1361.91,356.3l-6234.45 0c-548.13,0 -1002.07,-120.08 -1350.79,-356.3 -354.33,-236.12 -531.3,-543.5 -531.3,-918.41l0 -4303.44 2258.76 0 0 4228.54 5481.2 0 0 -4105.02 -7009.35 -5720.57c-487.01,-393.7 -730.61,-828.64 -730.61,-1300.98l0 -3433.96c0,-374.9 176.97,-682.28 531.3,-918.41 348.72,-236.22 802.66,-356.3 1350.79,-356.3l6234.45 0c559.06,0 1013.19,120.08 1361.91,356.3 348.72,236.12 520.28,543.5 520.28,918.41l0 3943.8 -2258.76 0 0 -3868.9 -5481.2 0 0 3632.68 7042.22 5717.13c465.35,382.28 697.74,809.74 697.74,1282.09l0 3928.64z"/>
  <polyline class="fil0 str5" points="-107372.05,-6660.53 -87014.76,-15772.34 -74896.85,-21195.96 "/>
  <polyline class="fil0 str5" points="-104052.95,-2268.6 -81897.54,-12185.14 -68709.15,-18087.89 "/>
  <polyline class="fil0 str5" points="-42337.11,-9570.77 -29437.99,-15344.39 -21759.55,-18781 "/>
  <polyline class="fil0 str5" points="-39861.22,-6283.17 -26962.01,-12056.69 -19283.66,-15493.31 "/>
  <g id="_2794985726432">
   <path class="fil0 str6" d="M-66904.82 -1864.57c1864.47,-1145.87 3728.94,-2291.63 4963.48,-5520.77 1234.65,-3229.23 1839.27,-8541.83 2607.68,-11267.52 768.5,-2725.69 1700.79,-2864.57 2166.93,-2933.96 466.04,-69.49 466.04,-69.49 466.04,-69.49"/>
   <path class="fil0 str6" d="M-46904.72 -1864.57l-86.12 -52.95m-3883.07 -3466.04c-362.11,-565.55 -696.56,-1223.03 -994.29,-2001.77 -1234.65,-3229.23 -1839.27,-8541.83 -2607.68,-11267.52 -768.5,-2725.69 -1700.79,-2864.57 -2166.93,-2933.96 -466.04,-69.49 -466.04,-69.49 -466.04,-69.49"/>
  </g>
  <path class="fil3" d="M-37389.67 -3724.31l-55.12 58.66c-1616.44,1701.97 -3760.04,2593.8 -5928.54,2660.33 -2167.81,66.54 -4360.63,-691.93 -6075.98,-2290.85l-59.15 -55.71c-979.92,-930.71 -1694.49,-2039.27 -2141.24,-3229.04l370.67 0c431.2,1095.57 1101.38,2115.35 2007.97,2976.67l57.78 54.33c1646.36,1534.55 3750.49,2262.6 5830.51,2198.72 2079.13,-63.88 4134.94,-919.59 5685.63,-2551.87l55.12 -58.66 252.36 237.4z"/>
  <g id="_2794985723120">
   <path class="fil0 str6" d="M-66904.82 -1864.57c1864.47,-1145.87 3728.94,-2291.63 4963.48,-5520.77 1234.65,-3229.23 1839.27,-8541.83 2607.68,-11267.52 768.5,-2725.69 1700.79,-2864.57 2166.93,-2933.96 466.04,-69.49 466.04,-69.49 466.04,-69.49"/>
   <path class="fil0 str6" d="M-46904.72 -1864.57l-86.12 -52.95m-3883.07 -3466.04c-362.11,-565.55 -696.56,-1223.03 -994.29,-2001.77 -1234.65,-3229.23 -1839.27,-8541.83 -2607.68,-11267.52 -768.5,-2725.69 -1700.79,-2864.57 -2166.93,-2933.96 -466.04,-69.49 -466.04,-69.49 -466.04,-69.49"/>
  </g>
  <g id="_2794985723168">
   <circle class="fil4 str5" cx="-43827.85" cy="-5813.98" r="3012.4"/>
   <g>
    <path class="fil3" d="M-46169.98 -3999.11c327.46,-923.92 674.9,-1463.39 997.93,-1783.66 417.91,-414.37 792.91,-470.37 1042.81,-507.48l466.04 -69.49 37.6 257.28 -466.04 69.49c-216.04,32.09 -540.65,80.61 -897.34,434.25 -290.06,287.5 -603.25,772.15 -905.22,1599.61l-275.79 0z"/>
    <path class="fil3" d="M-41802.76 -3999.11c-301.97,-827.46 -615.16,-1312.11 -905.22,-1599.61 -356.69,-353.64 -681.3,-402.17 -897.34,-434.25l-466.04 -69.49 37.6 -257.28 466.04 69.49c249.9,37.11 624.9,93.11 1042.81,507.48 323.03,320.28 670.47,859.74 997.93,1783.66l-275.79 0z"/>
   </g>
   <circle class="fil4 str5" cx="-41279.33" cy="-7269.59" r="314.96"/>
   <circle class="fil4 str5" cx="-46409.55" cy="-7269.59" r="314.96"/>
   <path class="fil4" d="M-43841.24 -3319.29c173.92,0 314.96,141.04 314.96,314.96 0,171.16 -136.71,310.53 -306.79,314.86l-16.34 0c-170.08,-4.33 -306.79,-143.7 -306.79,-314.86 0,-173.92 141.04,-314.96 314.96,-314.96z"/>
   <path class="fil3" d="M-43841.24 -3406.1c110.53,0 211.02,44.98 283.76,117.62 73.03,72.64 118.01,173.13 118.01,284.15 0,110.53 -44.98,211.02 -117.62,283.76 -11.02,11.02 -22.74,21.46 -34.94,31.1l-498.92 0c-12.11,-9.55 -23.62,-19.88 -34.45,-30.71 -72.64,-73.13 -117.62,-173.62 -117.62,-284.15 0,-111.02 44.98,-211.52 117.62,-284.15 72.64,-72.64 173.13,-117.62 284.15,-117.62zm161.42 240.35c-41.24,-41.24 -98.43,-66.73 -161.42,-66.73 -62.99,0 -120.08,25.59 -161.32,66.83 -41.24,41.24 -66.83,98.33 -66.83,161.32 0,62.99 25.49,120.18 66.63,161.52 41.44,41.04 98.52,66.63 161.52,66.63 62.99,0 120.18,-25.49 161.52,-66.63 41.14,-41.34 66.63,-98.52 66.63,-161.52 0,-62.99 -25.59,-120.08 -66.73,-161.42z"/>
   <circle class="fil4 str5" cx="-45340.16" cy="-5367.81" r="314.96"/>
   <circle class="fil4 str5" cx="-43848.43" cy="-6200.59" r="314.96"/>
   <circle class="fil4 str5" cx="-42368.41" cy="-5367.81" r="314.96"/>
   <circle class="fil4 str5" cx="-46025.39" cy="-4017.91" r="314.96"/>
   <circle class="fil4 str5" cx="-41691.34" cy="-4017.91" r="314.96"/>
   <circle class="fil4 str5" cx="-45265.65" cy="-8461.81" r="314.96"/>
   <circle class="fil4 str5" cx="-42411.12" cy="-8461.81" r="314.96"/>
   <circle class="fil4 str5" cx="-43848.43" cy="-8944.98" r="314.96"/>
  </g>
 </g>
</svg>
